<?xml version="1.0" standalone="no"?>
<!DOCTYPE svg PUBLIC "-//W3C//DTD SVG 20010904//EN"
 "http://www.w3.org/TR/2001/REC-SVG-20010904/DTD/svg10.dtd">
<svg version="1.0" xmlns="http://www.w3.org/2000/svg"
 width="350.000000pt" height="197.000000pt" viewBox="0 0 350.000000 197.000000"
 preserveAspectRatio="xMidYMid meet">

<g transform="translate(0.000000,197.000000) scale(0.100000,-0.100000)"
fill="#000000" stroke="none">
<path d="M1675 1795 c-264 -57 -455 -295 -455 -563 0 -156 56 -290 169 -403
80 -80 177 -137 271 -158 70 -16 228 -13 291 5 196 58 354 218 403 410 20 79
20 209 0 288 -77 297 -382 486 -679 421z m300 -54 c218 -78 360 -283 358 -516
-2 -147 -49 -262 -150 -366 l-44 -46 -58 23 c-69 28 -165 54 -201 54 -14 0
-35 3 -48 6 -22 6 -22 7 -20 172 l3 166 80 47 c43 26 81 51 83 57 8 26 -22 19
-83 -18 -36 -22 -70 -40 -75 -40 -6 0 -10 20 -10 43 0 32 -4 44 -15 44 -11 0
-15 -12 -15 -44 0 -23 -3 -43 -6 -43 -4 0 -38 18 -76 40 -64 36 -94 43 -86 19
2 -5 39 -31 83 -57 l80 -48 3 -166 2 -166 -27 -6 c-16 -2 -50 -8 -78 -11 -27
-4 -89 -22 -138 -40 l-87 -32 -53 56 c-92 100 -137 218 -137 361 0 47 6 108
14 135 49 184 201 338 387 390 76 21 235 14 314 -14z m31 -916 c44 -15 82 -30
87 -34 10 -10 -57 -47 -130 -72 -128 -44 -282 -32 -413 33 l-65 32 52 23 c130
59 324 66 469 18z"/>
<path d="M1734 1622 c-106 -85 -5 -239 116 -177 37 19 50 43 50 95 0 59 -42
100 -102 100 -26 0 -52 -7 -64 -18z"/>
<path d="M1575 1229 c-9 -13 -15 -8 77 -64 70 -41 98 -49 98 -26 0 7 -152 101
-163 101 -3 0 -9 -5 -12 -11z"/>
<path d="M1960 1217 c-112 -67 -119 -73 -111 -86 6 -10 27 -2 90 35 73 42 93
63 65 70 -5 1 -25 -7 -44 -19z"/>
<path d="M1535 1113 c-3 -9 -4 -17 -3 -18 2 -1 47 -27 101 -59 72 -43 102 -55
110 -47 14 14 20 9 -100 79 -82 49 -103 57 -108 45z"/>
<path d="M1948 1068 c-54 -33 -98 -66 -98 -74 0 -8 3 -14 7 -14 17 0 203 116
203 127 0 25 -18 19 -112 -39z"/>
<path d="M716 473 c-3 -4 -6 -57 -6 -120 0 -106 1 -113 20 -113 17 0 20 7 20
50 l0 50 75 0 75 0 0 -50 c0 -44 3 -50 20 -50 20 0 21 5 18 117 -3 103 -5 118
-20 121 -15 3 -18 -4 -18 -47 l0 -51 -75 0 -75 0 0 44 c0 41 -17 65 -34 49z"/>
<path d="M1150 361 c0 -115 1 -121 20 -121 20 0 21 5 18 117 -3 103 -5 118
-20 121 -16 3 -18 -8 -18 -117z"/>
<path d="M1407 473 c-4 -3 -7 -57 -7 -120 0 -106 1 -113 20 -113 17 0 20 8 22
84 l3 84 73 -84 c40 -46 80 -84 88 -84 11 0 14 23 14 120 0 99 -3 120 -15 120
-11 0 -15 -19 -17 -90 l-3 -90 -79 90 c-77 89 -86 96 -99 83z"/>
<path d="M1893 465 c-96 -41 -94 -173 2 -216 59 -26 108 -18 153 27 26 26 32
40 32 73 0 56 -22 95 -64 115 -41 19 -80 20 -123 1z m106 -30 c33 -17 56 -64
46 -97 -14 -45 -45 -68 -92 -68 -56 0 -93 33 -93 82 0 76 71 119 139 83z"/>
<path d="M2280 360 c0 -100 3 -120 15 -120 11 0 15 12 15 50 0 34 4 50 13 50
7 0 35 -22 62 -50 33 -34 57 -50 74 -50 23 0 20 6 -38 64 l-64 64 59 56 c51
48 56 55 36 56 -14 0 -43 -19 -76 -50 -29 -27 -56 -50 -59 -50 -4 0 -7 23 -7
50 0 38 -4 50 -15 50 -12 0 -15 -20 -15 -120z"/>
<path d="M2690 360 c-53 -107 -58 -120 -40 -120 15 0 31 22 67 93 l46 92 44
-92 c33 -73 48 -93 63 -93 17 0 19 4 12 18 -5 9 -30 60 -56 113 -25 54 -53
100 -61 103 -11 4 -30 -25 -75 -114z"/>
</g>
</svg>
